<mxfile host="www.draw.io" modified="2019-12-14T09:30:22.820Z" agent="Mozilla/5.0 (Windows NT 10.0; Win64; x64) AppleWebKit/537.36 (KHTML, like Gecko) Chrome/78.0.3904.108 Safari/537.36" etag="Ueow6LNxSdURcQFiPdCi" version="12.4.1" type="github" pages="1">
  <diagram id="422YOxYGFeFGr5xy3Dk6" name="Page-1">
    <mxGraphModel dx="5126" dy="1928" grid="1" gridSize="10" guides="1" tooltips="1" connect="1" arrows="1" fold="1" page="1" pageScale="1" pageWidth="827" pageHeight="1169" math="0" shadow="0">
      <root>
        <mxCell id="0"/>
        <mxCell id="1" parent="0"/>
        <mxCell id="3tih9GtL7K48OsUuCnsc-3" value="" style="edgeStyle=orthogonalEdgeStyle;rounded=0;orthogonalLoop=1;jettySize=auto;html=1;" parent="1" source="3tih9GtL7K48OsUuCnsc-1" target="3tih9GtL7K48OsUuCnsc-2" edge="1">
          <mxGeometry relative="1" as="geometry"/>
        </mxCell>
        <mxCell id="3tih9GtL7K48OsUuCnsc-1" value="makeAShell(container)" style="shape=parallelogram;perimeter=parallelogramPerimeter;whiteSpace=wrap;html=1;" parent="1" vertex="1">
          <mxGeometry x="300" y="70" width="180" height="60" as="geometry"/>
        </mxCell>
        <mxCell id="3tih9GtL7K48OsUuCnsc-7" value="" style="edgeStyle=orthogonalEdgeStyle;rounded=0;orthogonalLoop=1;jettySize=auto;html=1;entryX=0.5;entryY=0;entryDx=0;entryDy=0;" parent="1" source="3tih9GtL7K48OsUuCnsc-2" target="3tih9GtL7K48OsUuCnsc-9" edge="1">
          <mxGeometry relative="1" as="geometry">
            <mxPoint x="390" y="350" as="targetPoint"/>
          </mxGeometry>
        </mxCell>
        <mxCell id="3tih9GtL7K48OsUuCnsc-2" value="makeAPrompt (container, prompt = &#39; &#39;, parentCommand = &#39; &#39;)" style="shape=parallelogram;perimeter=parallelogramPerimeter;whiteSpace=wrap;html=1;" parent="1" vertex="1">
          <mxGeometry x="175" y="210" width="430" height="60" as="geometry"/>
        </mxCell>
        <mxCell id="3tih9GtL7K48OsUuCnsc-4" value="makeAShell(#shell-c)" style="rounded=0;whiteSpace=wrap;html=1;fillColor=#ffe6cc;strokeColor=#d79b00;" parent="1" vertex="1">
          <mxGeometry x="500" y="70" width="120" height="60" as="geometry"/>
        </mxCell>
        <mxCell id="3tih9GtL7K48OsUuCnsc-5" value="&lt;span style=&quot;white-space: normal&quot;&gt;makeAPrompt (#shell-c)&lt;/span&gt;" style="rounded=0;whiteSpace=wrap;html=1;fillColor=#ffe6cc;strokeColor=#d79b00;" parent="1" vertex="1">
          <mxGeometry x="610" y="210" width="120" height="60" as="geometry"/>
        </mxCell>
        <mxCell id="3tih9GtL7K48OsUuCnsc-15" value="" style="edgeStyle=orthogonalEdgeStyle;rounded=0;orthogonalLoop=1;jettySize=auto;html=1;entryX=0.5;entryY=0;entryDx=0;entryDy=0;" parent="1" source="3tih9GtL7K48OsUuCnsc-9" target="3tih9GtL7K48OsUuCnsc-16" edge="1">
          <mxGeometry relative="1" as="geometry">
            <mxPoint x="390" y="500" as="targetPoint"/>
          </mxGeometry>
        </mxCell>
        <mxCell id="3tih9GtL7K48OsUuCnsc-9" value="let prompt_c;" style="rounded=0;whiteSpace=wrap;html=1;" parent="1" vertex="1">
          <mxGeometry x="330" y="350" width="120" height="60" as="geometry"/>
        </mxCell>
        <mxCell id="3tih9GtL7K48OsUuCnsc-17" style="edgeStyle=orthogonalEdgeStyle;rounded=0;orthogonalLoop=1;jettySize=auto;html=1;exitX=0;exitY=0.5;exitDx=0;exitDy=0;entryX=0.5;entryY=0;entryDx=0;entryDy=0;" parent="1" source="3tih9GtL7K48OsUuCnsc-16" target="3tih9GtL7K48OsUuCnsc-21" edge="1">
          <mxGeometry relative="1" as="geometry">
            <mxPoint x="120" y="610" as="targetPoint"/>
          </mxGeometry>
        </mxCell>
        <mxCell id="3tih9GtL7K48OsUuCnsc-19" style="edgeStyle=orthogonalEdgeStyle;rounded=0;orthogonalLoop=1;jettySize=auto;html=1;exitX=1;exitY=0.5;exitDx=0;exitDy=0;entryX=0.5;entryY=0;entryDx=0;entryDy=0;" parent="1" source="3tih9GtL7K48OsUuCnsc-16" target="3tih9GtL7K48OsUuCnsc-24" edge="1">
          <mxGeometry relative="1" as="geometry">
            <mxPoint x="640" y="610" as="targetPoint"/>
          </mxGeometry>
        </mxCell>
        <mxCell id="3tih9GtL7K48OsUuCnsc-16" value="prompt_c" style="rhombus;whiteSpace=wrap;html=1;" parent="1" vertex="1">
          <mxGeometry x="350" y="490" width="80" height="80" as="geometry"/>
        </mxCell>
        <mxCell id="3tih9GtL7K48OsUuCnsc-18" value="prompt === &#39; &#39;" style="text;html=1;align=center;verticalAlign=middle;resizable=0;points=[];;autosize=1;" parent="1" vertex="1">
          <mxGeometry x="210" y="510" width="90" height="20" as="geometry"/>
        </mxCell>
        <mxCell id="3tih9GtL7K48OsUuCnsc-20" value="else" style="text;html=1;align=center;verticalAlign=middle;resizable=0;points=[];;autosize=1;" parent="1" vertex="1">
          <mxGeometry x="495" y="510" width="40" height="20" as="geometry"/>
        </mxCell>
        <mxCell id="3tih9GtL7K48OsUuCnsc-21" value="$(&#39;&amp;lt;div&amp;gt;&amp;lt;b&amp;gt;&#39;+shellObj[&#39;prompt-sign&#39;]+&#39;&amp;lt;/b&amp;gt;&amp;lt;pre&amp;gt; &amp;lt;/pre&amp;gt;&amp;lt;/div&amp;gt;&#39;).appendTo(container);" style="rounded=0;whiteSpace=wrap;html=1;" parent="1" vertex="1">
          <mxGeometry x="-80" y="625" width="460" height="40" as="geometry"/>
        </mxCell>
        <mxCell id="3tih9GtL7K48OsUuCnsc-26" style="edgeStyle=orthogonalEdgeStyle;rounded=0;orthogonalLoop=1;jettySize=auto;html=1;exitX=0.5;exitY=1;exitDx=0;exitDy=0;" parent="1" source="3tih9GtL7K48OsUuCnsc-22" edge="1">
          <mxGeometry relative="1" as="geometry">
            <mxPoint x="400" y="930" as="targetPoint"/>
          </mxGeometry>
        </mxCell>
        <mxCell id="3tih9GtL7K48OsUuCnsc-22" value="&lt;span style=&quot;white-space: normal&quot;&gt;$(&#39;&amp;gt;&#39;).appendTo(#shell-c);&lt;/span&gt;" style="rounded=0;whiteSpace=wrap;html=1;fillColor=#ffe6cc;strokeColor=#d79b00;" parent="1" vertex="1">
          <mxGeometry x="-80" y="675" width="460" height="60" as="geometry"/>
        </mxCell>
        <mxCell id="3tih9GtL7K48OsUuCnsc-24" value="$(&#39;&amp;lt;div&amp;gt;&amp;lt;b&amp;gt;&#39;+prompt+&#39;&amp;lt;/b&amp;gt;&amp;lt;pre&amp;gt; &amp;lt;/pre&amp;gt;&amp;lt;/div&amp;gt;&#39;).appendTo(container);" style="rounded=0;whiteSpace=wrap;html=1;" parent="1" vertex="1">
          <mxGeometry x="410" y="625" width="460" height="40" as="geometry"/>
        </mxCell>
        <mxCell id="3tih9GtL7K48OsUuCnsc-27" style="edgeStyle=orthogonalEdgeStyle;rounded=0;orthogonalLoop=1;jettySize=auto;html=1;exitX=0.5;exitY=1;exitDx=0;exitDy=0;" parent="1" source="3tih9GtL7K48OsUuCnsc-25" edge="1">
          <mxGeometry relative="1" as="geometry">
            <mxPoint x="400" y="930" as="targetPoint"/>
          </mxGeometry>
        </mxCell>
        <mxCell id="3tih9GtL7K48OsUuCnsc-25" value="&lt;span style=&quot;white-space: normal&quot;&gt;$(&#39;color:&#39;).appendTo(#shell-c);&lt;/span&gt;" style="rounded=0;whiteSpace=wrap;html=1;fillColor=#ffe6cc;strokeColor=#d79b00;" parent="1" vertex="1">
          <mxGeometry x="410" y="675" width="460" height="60" as="geometry"/>
        </mxCell>
        <mxCell id="3tih9GtL7K48OsUuCnsc-30" value="" style="edgeStyle=orthogonalEdgeStyle;rounded=0;orthogonalLoop=1;jettySize=auto;html=1;entryX=0.5;entryY=0;entryDx=0;entryDy=0;" parent="1" source="3tih9GtL7K48OsUuCnsc-28" target="3tih9GtL7K48OsUuCnsc-31" edge="1">
          <mxGeometry relative="1" as="geometry">
            <mxPoint x="405" y="1070" as="targetPoint"/>
          </mxGeometry>
        </mxCell>
        <mxCell id="3tih9GtL7K48OsUuCnsc-28" value="let prompt_command = $(&#39;&amp;lt;div contenteditable=&quot;true&quot; class=&quot;prompt-command-class&quot;&amp;gt;&amp;lt;/div&amp;gt;&#39;).appendTo(prompt_c);" style="rounded=0;whiteSpace=wrap;html=1;" parent="1" vertex="1">
          <mxGeometry x="60" y="930" width="690" height="60" as="geometry"/>
        </mxCell>
        <mxCell id="3tih9GtL7K48OsUuCnsc-33" style="edgeStyle=orthogonalEdgeStyle;rounded=0;orthogonalLoop=1;jettySize=auto;html=1;exitX=0;exitY=0.5;exitDx=0;exitDy=0;" parent="1" source="3tih9GtL7K48OsUuCnsc-31" edge="1">
          <mxGeometry relative="1" as="geometry">
            <mxPoint x="20" y="1250" as="targetPoint"/>
          </mxGeometry>
        </mxCell>
        <mxCell id="3tih9GtL7K48OsUuCnsc-34" value="prompt !== &#39; &#39;&amp;nbsp; &amp;amp;&amp;amp; parentCommand !== &#39; &#39;" style="text;html=1;align=center;verticalAlign=middle;resizable=0;points=[];;labelBackgroundColor=#ffffff;" parent="3tih9GtL7K48OsUuCnsc-33" vertex="1" connectable="0">
          <mxGeometry x="-0.5835" y="1" relative="1" as="geometry">
            <mxPoint x="-64" y="-11" as="offset"/>
          </mxGeometry>
        </mxCell>
        <mxCell id="3tih9GtL7K48OsUuCnsc-36" style="edgeStyle=orthogonalEdgeStyle;rounded=0;orthogonalLoop=1;jettySize=auto;html=1;exitX=0.5;exitY=1;exitDx=0;exitDy=0;entryX=0.5;entryY=0;entryDx=0;entryDy=0;" parent="1" source="3tih9GtL7K48OsUuCnsc-31" target="3tih9GtL7K48OsUuCnsc-39" edge="1">
          <mxGeometry relative="1" as="geometry">
            <mxPoint x="405" y="1310" as="targetPoint"/>
          </mxGeometry>
        </mxCell>
        <mxCell id="3tih9GtL7K48OsUuCnsc-31" value="Enter command" style="rhombus;whiteSpace=wrap;html=1;" parent="1" vertex="1">
          <mxGeometry x="365" y="1070" width="80" height="80" as="geometry"/>
        </mxCell>
        <mxCell id="3tih9GtL7K48OsUuCnsc-35" value="" style="rounded=0;whiteSpace=wrap;html=1;fillColor=#ffe6cc;strokeColor=#d79b00;" parent="1" vertex="1">
          <mxGeometry x="90" y="1060" width="230" height="30" as="geometry"/>
        </mxCell>
        <mxCell id="3tih9GtL7K48OsUuCnsc-37" value="else" style="text;html=1;align=center;verticalAlign=middle;resizable=0;points=[];;autosize=1;" parent="1" vertex="1">
          <mxGeometry x="370" y="1219" width="40" height="20" as="geometry"/>
        </mxCell>
        <mxCell id="3tih9GtL7K48OsUuCnsc-38" value="simple command" style="rounded=0;whiteSpace=wrap;html=1;fillColor=#ffe6cc;strokeColor=#d79b00;" parent="1" vertex="1">
          <mxGeometry x="298" y="1198.5" width="75" height="61" as="geometry"/>
        </mxCell>
        <mxCell id="3tih9GtL7K48OsUuCnsc-39" value="makeAnAnswer(command, container);" style="shape=parallelogram;perimeter=parallelogramPerimeter;whiteSpace=wrap;html=1;" parent="1" vertex="1">
          <mxGeometry x="267.5" y="1320" width="275" height="60" as="geometry"/>
        </mxCell>
        <mxCell id="3tih9GtL7K48OsUuCnsc-42" style="edgeStyle=orthogonalEdgeStyle;rounded=0;orthogonalLoop=1;jettySize=auto;html=1;exitX=0.5;exitY=1;exitDx=0;exitDy=0;entryX=0.5;entryY=0;entryDx=0;entryDy=0;" parent="1" source="3tih9GtL7K48OsUuCnsc-40" target="3tih9GtL7K48OsUuCnsc-41" edge="1">
          <mxGeometry relative="1" as="geometry"/>
        </mxCell>
        <mxCell id="3tih9GtL7K48OsUuCnsc-40" value="makeAnAnswer(command, container, parentCommand = false)" style="shape=parallelogram;perimeter=parallelogramPerimeter;whiteSpace=wrap;html=1;" parent="1" vertex="1">
          <mxGeometry x="-1390" y="70" width="450" height="60" as="geometry"/>
        </mxCell>
        <mxCell id="3tih9GtL7K48OsUuCnsc-43" style="edgeStyle=orthogonalEdgeStyle;rounded=0;orthogonalLoop=1;jettySize=auto;html=1;exitX=0;exitY=0.5;exitDx=0;exitDy=0;" parent="1" source="3tih9GtL7K48OsUuCnsc-41" edge="1">
          <mxGeometry relative="1" as="geometry">
            <mxPoint x="-1460" y="320" as="targetPoint"/>
          </mxGeometry>
        </mxCell>
        <mxCell id="3tih9GtL7K48OsUuCnsc-60" style="edgeStyle=orthogonalEdgeStyle;rounded=0;orthogonalLoop=1;jettySize=auto;html=1;exitX=1;exitY=0.5;exitDx=0;exitDy=0;entryX=0.5;entryY=0;entryDx=0;entryDy=0;" parent="1" source="3tih9GtL7K48OsUuCnsc-41" target="3tih9GtL7K48OsUuCnsc-59" edge="1">
          <mxGeometry relative="1" as="geometry"/>
        </mxCell>
        <mxCell id="3tih9GtL7K48OsUuCnsc-41" value="parentCommand" style="rhombus;whiteSpace=wrap;html=1;" parent="1" vertex="1">
          <mxGeometry x="-1218.5" y="180" width="107" height="100" as="geometry"/>
        </mxCell>
        <mxCell id="3tih9GtL7K48OsUuCnsc-44" value="!= false" style="text;html=1;align=center;verticalAlign=middle;resizable=0;points=[];;autosize=1;" parent="1" vertex="1">
          <mxGeometry x="-1355" y="210" width="50" height="20" as="geometry"/>
        </mxCell>
        <mxCell id="3tih9GtL7K48OsUuCnsc-46" value="it is time to run a several arg function" style="rounded=0;whiteSpace=wrap;html=1;fillColor=#ffe6cc;strokeColor=#d79b00;" parent="1" vertex="1">
          <mxGeometry x="-1390" y="230" width="120" height="30" as="geometry"/>
        </mxCell>
        <mxCell id="3tih9GtL7K48OsUuCnsc-49" style="edgeStyle=orthogonalEdgeStyle;rounded=0;orthogonalLoop=1;jettySize=auto;html=1;exitX=0;exitY=0.5;exitDx=0;exitDy=0;entryX=0.5;entryY=0;entryDx=0;entryDy=0;" parent="1" source="3tih9GtL7K48OsUuCnsc-48" target="3tih9GtL7K48OsUuCnsc-55" edge="1">
          <mxGeometry relative="1" as="geometry">
            <mxPoint x="-909" y="465" as="targetPoint"/>
          </mxGeometry>
        </mxCell>
        <mxCell id="3tih9GtL7K48OsUuCnsc-52" style="edgeStyle=orthogonalEdgeStyle;rounded=0;orthogonalLoop=1;jettySize=auto;html=1;exitX=1;exitY=0.5;exitDx=0;exitDy=0;entryX=0.5;entryY=0;entryDx=0;entryDy=0;" parent="1" source="3tih9GtL7K48OsUuCnsc-48" target="3tih9GtL7K48OsUuCnsc-54" edge="1">
          <mxGeometry relative="1" as="geometry">
            <mxPoint x="-459" y="475" as="targetPoint"/>
          </mxGeometry>
        </mxCell>
        <mxCell id="3tih9GtL7K48OsUuCnsc-48" value="arg" style="rhombus;whiteSpace=wrap;html=1;" parent="1" vertex="1">
          <mxGeometry x="-689" y="335" width="80" height="80" as="geometry"/>
        </mxCell>
        <mxCell id="3tih9GtL7K48OsUuCnsc-50" value="arg !== prompt" style="text;html=1;align=center;verticalAlign=middle;resizable=0;points=[];;autosize=1;" parent="1" vertex="1">
          <mxGeometry x="-819" y="355" width="90" height="20" as="geometry"/>
        </mxCell>
        <mxCell id="3tih9GtL7K48OsUuCnsc-51" value="run a simple function" style="rounded=0;whiteSpace=wrap;html=1;fillColor=#ffe6cc;strokeColor=#d79b00;" parent="1" vertex="1">
          <mxGeometry x="-834" y="375" width="120" height="30" as="geometry"/>
        </mxCell>
        <mxCell id="3tih9GtL7K48OsUuCnsc-53" value="arg == prompt" style="text;html=1;align=center;verticalAlign=middle;resizable=0;points=[];;autosize=1;" parent="1" vertex="1">
          <mxGeometry x="-555" y="355" width="90" height="20" as="geometry"/>
        </mxCell>
        <mxCell id="3tih9GtL7K48OsUuCnsc-54" value="get all args with recalling the makeAPrompt()&lt;br&gt;and then run&amp;nbsp;makeAnAnswer(&#39;&#39;, shellObj[&#39;shell-container&#39;], counter2[1]);&lt;br&gt;so a several&amp;nbsp; arg function ran" style="rounded=0;whiteSpace=wrap;html=1;" parent="1" vertex="1">
          <mxGeometry x="-609" y="460" width="390" height="110" as="geometry"/>
        </mxCell>
        <mxCell id="3tih9GtL7K48OsUuCnsc-55" value="showAnswer(eval(jsonVal)(arg), container)" style="rounded=0;whiteSpace=wrap;html=1;" parent="1" vertex="1">
          <mxGeometry x="-1041.5" y="475" width="255" height="60" as="geometry"/>
        </mxCell>
        <mxCell id="3tih9GtL7K48OsUuCnsc-56" value="run a several arg function" style="rounded=0;whiteSpace=wrap;html=1;fillColor=#ffe6cc;strokeColor=#d79b00;" parent="1" vertex="1">
          <mxGeometry x="-580" y="375" width="140" height="30" as="geometry"/>
        </mxCell>
        <mxCell id="3tih9GtL7K48OsUuCnsc-66" style="edgeStyle=orthogonalEdgeStyle;rounded=0;orthogonalLoop=1;jettySize=auto;html=1;exitX=0.5;exitY=1;exitDx=0;exitDy=0;entryX=0.5;entryY=0;entryDx=0;entryDy=0;" parent="1" source="3tih9GtL7K48OsUuCnsc-59" target="3tih9GtL7K48OsUuCnsc-78" edge="1">
          <mxGeometry relative="1" as="geometry">
            <mxPoint x="-629.7142857142858" y="850" as="targetPoint"/>
          </mxGeometry>
        </mxCell>
        <mxCell id="3tih9GtL7K48OsUuCnsc-59" value="" style="rounded=0;whiteSpace=wrap;html=1;fillColor=none;" parent="1" vertex="1">
          <mxGeometry x="-1050" y="320" width="840" height="310" as="geometry"/>
        </mxCell>
        <mxCell id="3tih9GtL7K48OsUuCnsc-61" value="try" style="text;html=1;align=center;verticalAlign=middle;resizable=0;points=[];;autosize=1;" parent="1" vertex="1">
          <mxGeometry x="-630" y="260" width="30" height="20" as="geometry"/>
        </mxCell>
        <mxCell id="3tih9GtL7K48OsUuCnsc-67" value="catch" style="text;html=1;align=center;verticalAlign=middle;resizable=0;points=[];;autosize=1;" parent="1" vertex="1">
          <mxGeometry x="-629" y="735" width="40" height="20" as="geometry"/>
        </mxCell>
        <mxCell id="3tih9GtL7K48OsUuCnsc-75" style="edgeStyle=orthogonalEdgeStyle;rounded=0;orthogonalLoop=1;jettySize=auto;html=1;exitX=0.5;exitY=1;exitDx=0;exitDy=0;entryX=0.5;entryY=0;entryDx=0;entryDy=0;" parent="1" source="3tih9GtL7K48OsUuCnsc-68" target="3tih9GtL7K48OsUuCnsc-73" edge="1">
          <mxGeometry relative="1" as="geometry"/>
        </mxCell>
        <mxCell id="3tih9GtL7K48OsUuCnsc-68" value="run a command-answer function" style="rounded=0;whiteSpace=wrap;html=1;" parent="1" vertex="1">
          <mxGeometry x="-745" y="950" width="229" height="60" as="geometry"/>
        </mxCell>
        <mxCell id="3tih9GtL7K48OsUuCnsc-73" value="show this command doesn&#39;t exist error" style="rounded=0;whiteSpace=wrap;html=1;" parent="1" vertex="1">
          <mxGeometry x="-745" y="1085" width="230" height="60" as="geometry"/>
        </mxCell>
        <mxCell id="3tih9GtL7K48OsUuCnsc-74" value="" style="endArrow=classic;html=1;entryX=0.5;entryY=0;entryDx=0;entryDy=0;" parent="1" target="3tih9GtL7K48OsUuCnsc-68" edge="1">
          <mxGeometry width="50" height="50" relative="1" as="geometry">
            <mxPoint x="-630" y="900" as="sourcePoint"/>
            <mxPoint x="-815" y="810" as="targetPoint"/>
          </mxGeometry>
        </mxCell>
        <mxCell id="3tih9GtL7K48OsUuCnsc-76" value="try" style="text;html=1;align=center;verticalAlign=middle;resizable=0;points=[];;autosize=1;" parent="1" vertex="1">
          <mxGeometry x="-630" y="920" width="30" height="20" as="geometry"/>
        </mxCell>
        <mxCell id="3tih9GtL7K48OsUuCnsc-77" value="catch" style="text;html=1;align=center;verticalAlign=middle;resizable=0;points=[];;autosize=1;" parent="1" vertex="1">
          <mxGeometry x="-630.5" y="1037.5" width="40" height="20" as="geometry"/>
        </mxCell>
        <mxCell id="3tih9GtL7K48OsUuCnsc-78" value="" style="rounded=0;whiteSpace=wrap;html=1;fillColor=none;" parent="1" vertex="1">
          <mxGeometry x="-786" y="860" width="317" height="340" as="geometry"/>
        </mxCell>
      </root>
    </mxGraphModel>
  </diagram>
</mxfile>
